<svg width="469" height="618" viewBox="0 0 469 618" fill="none" xmlns="http://www.w3.org/2000/svg">
<path d="M384.286 326.628C391.661 330.447 399.15 335.386 405.215 341.028C452.637 385.145 470.613 424.395 468.172 458.417C465.73 492.438 442.859 521.41 408.161 544.941C338.759 592.007 222.385 617.057 129.5 617.057C82.3832 617.057 45.7303 603.492 17.239 580.502C-11.26 557.506 -31.6267 525.053 -46.1136 487.227C-75.0926 411.562 -80.5 314.519 -80.5 229.056C-80.5 153.584 -46.8026 96.6557 -1.52871 58.4856C43.7578 20.3048 100.614 0.905378 146.876 0.506287C168.677 0.318213 188.318 12.8436 199.816 31.4311C219.249 62.8476 224.517 88.6811 225.48 111.833C225.909 122.124 225.487 131.885 225.076 141.393C225.024 142.591 224.972 143.785 224.922 144.976C224.479 155.606 224.186 165.957 225.287 176.364C227.493 197.212 235.286 218.246 258.526 242.34C281.747 266.414 320.389 293.545 384.286 326.628Z" stroke="black"/>
</svg>
