<svg width="493" height="349" viewBox="0 0 493 349" fill="none" xmlns="http://www.w3.org/2000/svg">
<path d="M0.470264 126.001C-1.61796 92.781 17.082 61.7387 47.4252 48.055L102.82 23.0741C111.798 19.0253 121.447 16.6692 131.28 16.1241L242.336 9.96866L351.388 0.434965C362.217 -0.511744 373.126 0.758413 383.447 4.1679L425.579 18.0848C456.375 28.2571 477.982 56.0152 480.285 88.3651L492.096 254.211C494.913 293.772 468.319 329.426 429.595 338.001L388.474 347.108C382.794 348.365 376.994 349 371.177 349H242.336H133.084C126.959 349 120.854 348.297 114.889 346.904L70.7749 336.601C36.3939 328.571 11.3419 298.953 9.12697 263.716L0.470264 126.001Z" fill="#E6D9C9"/>
</svg>
